<svg version="1.1" id="Layer_1" xmlns="http://www.w3.org/2000/svg" xmlns:xlink="http://www.w3.org/1999/xlink" x="0px" y="0px"
	 width="100%" viewBox="0 0 380 420" enable-background="new 0 0 380 420" xml:space="preserve">
<path fill="#000000" opacity="1.000000" stroke="none" 
	d="
M1.000001,315.000000 
	C1.000000,245.979111 1.000000,176.958206 1.236539,107.813126 
	C4.223656,104.481224 6.398573,100.327080 9.830538,98.239639 
	C21.045383,91.418365 32.724754,85.361855 44.213253,78.989197 
	C56.420773,72.217682 68.639366,65.465530 80.808144,58.624916 
	C98.907631,48.450386 116.941124,38.158321 135.052628,28.005331 
	C150.070343,19.586657 165.166107,11.307225 180.190857,2.900953 
	C180.666260,2.634964 180.739349,1.649863 181.000000,0.999999 
	C187.354401,1.000000 193.708786,1.000000 200.192535,1.243396 
	C204.194931,3.813097 208.018433,6.227006 211.949707,8.450334 
	C227.785446,17.406235 243.634918,26.338301 259.517426,35.210960 
	C272.260223,42.329666 285.081665,49.307625 297.826202,56.423313 
	C319.653015,68.609955 341.516663,80.734047 363.198547,93.174225 
	C367.770477,95.797409 371.625519,99.670036 375.484070,103.060318 
	C367.961670,107.275856 360.795471,111.450348 353.564301,115.509125 
	C339.403015,123.457672 325.205505,131.341690 310.735474,139.027832 
	C302.921021,127.491318 294.575073,116.958359 284.413116,107.760338 
	C271.791168,96.335663 257.738220,87.282661 242.008942,81.146469 
	C219.783203,72.475914 196.715820,69.917389 172.905884,72.861900 
	C157.847031,74.724197 143.602951,79.027725 130.122803,85.549171 
	C113.832741,93.430000 99.665276,104.326050 87.520523,117.925697 
	C76.095367,130.719543 66.518684,144.651215 61.116787,160.919464 
	C57.554810,171.646652 54.776264,182.783905 53.120743,193.955917 
	C51.090416,207.657257 50.596359,221.466263 53.503170,235.375107 
	C56.627621,250.325317 61.673477,264.439392 68.045334,278.335022 
	C46.270233,290.826965 24.746576,303.075958 2.809212,315.048828 
	C1.930338,314.848511 1.465170,314.924255 1.000001,315.000000 
z"/>
<path fill="#000000" opacity="1.000000" stroke="none" 
	d="
M311.023010,139.252426 
	C325.205505,131.341690 339.403015,123.457672 353.564301,115.509125 
	C360.795471,111.450348 367.961670,107.275856 375.823425,103.176872 
	C377.993073,104.466713 379.496552,105.733353 381.000000,107.000000 
	C381.000000,175.687561 381.000000,244.375122 380.714783,313.293823 
	C379.614502,314.357697 378.799408,315.190399 377.668579,315.869995 
	C365.167389,308.987732 353.052765,302.125916 340.773590,295.572327 
	C331.292633,290.512207 321.605438,285.838623 311.865051,280.675720 
	C306.822144,277.701782 301.910492,275.069946 297.028564,272.384155 
	C281.681946,263.941223 266.346466,255.478027 250.954330,246.664795 
	C248.163376,244.694366 245.464081,243.010254 242.679794,241.480804 
	C224.121399,231.286346 205.544861,221.124908 187.202881,210.702652 
	C208.980392,198.043121 230.529266,185.633698 252.377136,173.036865 
	C266.257843,165.195862 279.870087,157.595795 293.407104,149.863953 
	C299.358032,146.465012 305.155731,142.797836 311.023010,139.252426 
z"/>
<path fill="#000000" opacity="1.000000" stroke="none" 
	d="
M312.009918,280.993164 
	C321.605438,285.838623 331.292633,290.512207 340.773590,295.572327 
	C353.052765,302.125916 365.167389,308.987732 377.625305,316.211273 
	C374.753784,319.520477 371.898407,322.780396 368.400146,325.048828 
	C362.736328,328.721527 356.638397,331.721954 350.744812,335.043518 
	C329.902679,346.789825 309.103241,358.612335 288.220184,370.285309 
	C275.840424,377.205200 263.271881,383.787750 250.902115,390.725037 
	C238.530579,397.663330 226.260834,404.786316 214.028946,411.968781 
	C209.237152,414.782501 204.669662,417.978241 200.000000,421.000000 
	C193.978851,421.000000 187.957703,421.000000 181.556824,420.645813 
	C179.341721,418.937225 177.626236,417.368622 175.651413,416.263489 
	C163.404846,409.410004 151.054657,402.741241 138.824783,395.858521 
	C118.548355,384.447357 98.375923,372.851227 78.087189,361.462189 
	C57.519470,349.916565 36.738674,338.743408 16.337021,326.914154 
	C11.389184,324.045319 7.564207,319.239899 3.222919,315.324951 
	C24.746576,303.075958 46.270233,290.826965 68.337936,278.463623 
	C76.386139,288.559967 83.100090,299.492798 91.599533,308.794037 
	C101.649467,319.792053 113.887215,328.500427 127.344872,335.223816 
	C148.731842,345.908630 171.213318,350.888153 195.278305,350.207642 
	C219.239044,349.530029 241.481247,343.558228 261.605133,330.916901 
	C272.292877,324.203094 282.577972,316.386322 291.558655,307.556000 
	C299.451263,299.795532 305.273346,289.929321 312.009918,280.993164 
z"/>
<path fill="transparent" opacity="1.000000" stroke="none" 
	d="
M200.468658,421.000000 
	C204.669662,417.978241 209.237152,414.782501 214.028946,411.968781 
	C226.260834,404.786316 238.530579,397.663330 250.902115,390.725037 
	C263.271881,383.787750 275.840424,377.205200 288.220184,370.285309 
	C309.103241,358.612335 329.902679,346.789825 350.744812,335.043518 
	C356.638397,331.721954 362.736328,328.721527 368.400146,325.048828 
	C371.898407,322.780396 374.753784,319.520477 377.941040,316.364380 
	C378.799408,315.190399 379.614502,314.357697 380.714783,313.762512 
	C381.000000,349.612427 381.000000,385.224854 381.000000,421.000000 
	C320.979218,421.000000 260.958252,421.000000 200.468658,421.000000 
z"/>
<path fill="transparent" opacity="1.000000" stroke="none" 
	d="
M2.809212,315.048828 
	C7.564207,319.239899 11.389184,324.045319 16.337021,326.914154 
	C36.738674,338.743408 57.519470,349.916565 78.087189,361.462189 
	C98.375923,372.851227 118.548355,384.447357 138.824783,395.858521 
	C151.054657,402.741241 163.404846,409.410004 175.651413,416.263489 
	C177.626236,417.368622 179.341721,418.937225 181.088547,420.645813 
	C121.091904,421.000000 61.183815,421.000000 1.000000,421.000000 
	C1.000000,385.979584 1.000000,350.958466 1.000001,315.468658 
	C1.465170,314.924255 1.930338,314.848511 2.809212,315.048828 
z"/>
<path fill="transparent" opacity="1.000000" stroke="none" 
	d="
M381.000000,106.531342 
	C379.496552,105.733353 377.993073,104.466713 376.150238,103.083511 
	C371.625519,99.670036 367.770477,95.797409 363.198547,93.174225 
	C341.516663,80.734047 319.653015,68.609955 297.826202,56.423313 
	C285.081665,49.307625 272.260223,42.329666 259.517426,35.210960 
	C243.634918,26.338301 227.785446,17.406235 211.949707,8.450334 
	C208.018433,6.227006 204.194931,3.813097 200.660950,1.243396 
	C260.908081,1.000000 320.816193,1.000000 381.000000,1.000000 
	C381.000000,36.020412 381.000000,71.041550 381.000000,106.531342 
z"/>
<path fill="transparent" opacity="1.000000" stroke="none" 
	d="
M180.531342,0.999999 
	C180.739349,1.649863 180.666260,2.634964 180.190857,2.900953 
	C165.166107,11.307225 150.070343,19.586657 135.052628,28.005331 
	C116.941124,38.158321 98.907631,48.450386 80.808144,58.624916 
	C68.639366,65.465530 56.420773,72.217682 44.213253,78.989197 
	C32.724754,85.361855 21.045383,91.418365 9.830538,98.239639 
	C6.398573,100.327080 4.223656,104.481224 1.236539,107.344467 
	C1.000000,71.720779 1.000000,36.441563 1.000000,1.000000 
	C60.687462,1.000000 120.375076,1.000000 180.531342,0.999999 
z"/>
<path fill="transparent" opacity="1.000000" stroke="none" 
	d="
M311.865051,280.675720 
	C305.273346,289.929321 299.451263,299.795532 291.558655,307.556000 
	C282.577972,316.386322 272.292877,324.203094 261.605133,330.916901 
	C241.481247,343.558228 219.239044,349.530029 195.278305,350.207642 
	C171.213318,350.888153 148.731842,345.908630 127.344872,335.223816 
	C113.887215,328.500427 101.649467,319.792053 91.599533,308.794037 
	C83.100090,299.492798 76.386139,288.559967 68.589371,278.220642 
	C61.673477,264.439392 56.627621,250.325317 53.503170,235.375107 
	C50.596359,221.466263 51.090416,207.657257 53.120743,193.955917 
	C54.776264,182.783905 57.554810,171.646652 61.116787,160.919464 
	C66.518684,144.651215 76.095367,130.719543 87.520523,117.925697 
	C99.665276,104.326050 113.832741,93.430000 130.122803,85.549171 
	C143.602951,79.027725 157.847031,74.724197 172.905884,72.861900 
	C196.715820,69.917389 219.783203,72.475914 242.008942,81.146469 
	C257.738220,87.282661 271.791168,96.335663 284.413116,107.760338 
	C294.575073,116.958359 302.921021,127.491318 310.735474,139.027832 
	C305.155731,142.797836 299.358032,146.465012 293.407104,149.863953 
	C279.870087,157.595795 266.257843,165.195862 252.005829,172.963242 
	C250.539978,172.357590 249.569458,171.759155 248.975571,170.900299 
	C241.924606,160.703262 232.712967,152.815872 221.714172,147.441513 
	C207.288239,140.392563 191.784698,139.079269 176.140823,142.115021 
	C156.845032,145.859482 142.393295,156.987396 131.460815,173.058853 
	C121.623245,187.520737 119.718102,203.783615 121.178902,220.550781 
	C121.904968,228.884674 124.114235,237.103333 129.108658,244.508240 
	C129.806580,246.103409 130.501373,247.393265 131.314011,248.604034 
	C141.437302,263.686554 154.723114,274.676666 172.631195,278.957916 
	C195.060898,284.320129 216.138733,280.982727 234.494659,266.504211 
	C241.149475,261.255127 247.628723,255.309509 251.006668,247.022659 
	C266.346466,255.478027 281.681946,263.941223 297.028564,272.384155 
	C301.910492,275.069946 306.822144,277.701782 311.865051,280.675720 
z"/>
<path fill="#000000" opacity="1.000000" stroke="none" 
	d="
M129.160278,244.166199 
	C124.114235,237.103333 121.904968,228.884674 121.178902,220.550781 
	C119.718102,203.783615 121.623245,187.520737 131.460815,173.058853 
	C142.393295,156.987396 156.845032,145.859482 176.140823,142.115021 
	C191.784698,139.079269 207.288239,140.392563 221.714172,147.441513 
	C232.712967,152.815872 241.924606,160.703262 248.975571,170.900299 
	C249.569458,171.759155 250.539978,172.357590 251.706818,173.150635 
	C230.529266,185.633698 208.980392,198.043121 186.869202,210.807938 
	C177.664322,216.064240 168.988541,220.907684 160.387756,225.880859 
	C149.945541,231.918777 139.566589,238.066162 129.160278,244.166199 
z"/>
<path fill="#000000" opacity="1.000000" stroke="none" 
	d="
M129.108658,244.508240 
	C139.566589,238.066162 149.945541,231.918777 160.387756,225.880859 
	C168.988541,220.907684 177.664322,216.064240 186.640533,211.058029 
	C205.544861,221.124908 224.121399,231.286346 242.679794,241.480804 
	C245.464081,243.010254 248.163376,244.694366 250.954330,246.664795 
	C247.628723,255.309509 241.149475,261.255127 234.494659,266.504211 
	C216.138733,280.982727 195.060898,284.320129 172.631195,278.957916 
	C154.723114,274.676666 141.437302,263.686554 131.314011,248.604034 
	C130.501373,247.393265 129.806580,246.103409 129.108658,244.508240 
z"/>
</svg>